HIERARCHY
ROOT Hips
{
	OFFSET 0.000000 0.000000 0.000000
	CHANNELS 6 Xposition Yposition Zposition Xrotation Yrotation Zrotation
	JOINT LeftUpLeg_virtual
	{
		OFFSET 0.000000 0.000000 0.000000
		CHANNELS 3 Xrotation Yrotation Zrotation
		JOINT LeftUpLeg
		{
			OFFSET 13.026900 -6.336304 -1.092800
			CHANNELS 3 Xrotation Yrotation Zrotation
			JOINT LeftLeg
			{
				OFFSET 0.524474 -46.096886 9.782700
				CHANNELS 3 Xrotation Yrotation Zrotation
				JOINT LeftFoot
				{
					OFFSET -0.524474 -53.427422 -12.948200
					CHANNELS 3 Xrotation Yrotation Zrotation
					JOINT LeftToeBase
					{
						OFFSET 0.192200 -14.009700 16.364100
						CHANNELS 3 Xrotation Yrotation Zrotation
						JOINT LeftToe_End
						{
							OFFSET -1.784700 -0.561700 9.474800
							CHANNELS 3 Xrotation Yrotation Zrotation
							End Site
							{
								OFFSET 0 0 0
							}
						}
					}
				}
			}
		}
	}
	JOINT RightUpLeg_virtual
	{
		OFFSET 0.000000 0.000000 0.000000
		CHANNELS 3 Xrotation Yrotation Zrotation
		JOINT RightUpLeg
		{
			OFFSET -12.883000 -6.336304 -1.092800
			CHANNELS 3 Xrotation Yrotation Zrotation
			JOINT RightLeg
			{
				OFFSET -0.524587 -46.096825 9.782800
				CHANNELS 3 Xrotation Yrotation Zrotation
				JOINT RightFoot
				{
					OFFSET 0.524587 -53.427383 -12.948300
					CHANNELS 3 Xrotation Yrotation Zrotation
					JOINT RightToeBase
					{
						OFFSET -0.192200 -14.009700 16.364100
						CHANNELS 3 Xrotation Yrotation Zrotation
						JOINT RightToe_End
						{
							OFFSET 1.784700 -0.561700 9.474800
							CHANNELS 3 Xrotation Yrotation Zrotation
							End Site
							{
								OFFSET 0 0 0
							}
						}
					}
				}
			}
		}
	}
	JOINT Spine_virtual
	{
		OFFSET 0.000000 0.000000 0.000000
		CHANNELS 3 Xrotation Yrotation Zrotation
		JOINT Spine
		{
			OFFSET 0.072000 7.257294 -0.789700
			CHANNELS 3 Xrotation Yrotation Zrotation
			JOINT Spine1
			{
				OFFSET 0.000000 12.508769 -0.658067
				CHANNELS 3 Xrotation Yrotation Zrotation
				JOINT Spine1_split
				{
					OFFSET 0.000000 12.508769 -0.658067
					CHANNELS 3 Xrotation Yrotation Zrotation
					JOINT Spine2
					{
						OFFSET 0.000000 12.508769 -0.658067
						CHANNELS 3 Xrotation Yrotation Zrotation
						JOINT Neck_virtual
						{
							OFFSET 0.000000 0.000000 0.000000
							CHANNELS 3 Xrotation Yrotation Zrotation
							JOINT Neck
							{
								OFFSET 0.000000 14.033295 7.520400
								CHANNELS 3 Xrotation Yrotation Zrotation
								JOINT Head
								{
									OFFSET 0.000000 8.198502 5.703100
									CHANNELS 3 Xrotation Yrotation Zrotation
									JOINT HeadTop_End
									{
										OFFSET 0.000000 17.760803 13.332701
										CHANNELS 3 Xrotation Yrotation Zrotation
										End Site
										{
											OFFSET 0 0 0
										}
									}
								}
							}
						}
						JOINT LeftShoulder_virtual
						{
							OFFSET 0.000000 0.000000 0.000000
							CHANNELS 3 Xrotation Yrotation Zrotation
							JOINT LeftShoulder
							{
								OFFSET 6.292450 5.785301 -0.669000
								CHANNELS 3 Xrotation Yrotation Zrotation
								JOINT LeftShoulder_split
								{
									OFFSET 6.292450 5.785301 -0.669000
									CHANNELS 3 Xrotation Yrotation Zrotation
									JOINT LeftArm
									{
										OFFSET 13.907140 -6.093903 1.965100
										CHANNELS 3 Xrotation Yrotation Zrotation
										JOINT LeftForeArm
										{
											OFFSET 34.140198 0.000000 0.000000
											CHANNELS 3 Xrotation Yrotation Zrotation
											JOINT LeftHand
											{
												OFFSET 40.960209 0.000000 0.000000
												CHANNELS 3 Xrotation Yrotation Zrotation
												End Site
												{
													OFFSET 0 0 0
												}
											}
										}
									}
								}
							}
						}
						JOINT RightShoulder_virtual
						{
							OFFSET 0.000000 0.000000 0.000000
							CHANNELS 3 Xrotation Yrotation Zrotation
							JOINT RightShoulder
							{
								OFFSET -6.292450 5.785301 -0.669000
								CHANNELS 3 Xrotation Yrotation Zrotation
								JOINT RightShoulder_split
								{
									OFFSET -6.292450 5.785301 -0.669000
									CHANNELS 3 Xrotation Yrotation Zrotation
									JOINT RightArm
									{
										OFFSET -13.907140 -6.093903 1.965100
										CHANNELS 3 Xrotation Yrotation Zrotation
										JOINT RightForeArm
										{
											OFFSET -34.140198 0.000000 0.000000
											CHANNELS 3 Xrotation Yrotation Zrotation
											JOINT RightHand
											{
												OFFSET -40.960209 0.000000 0.000000
												CHANNELS 3 Xrotation Yrotation Zrotation
												End Site
												{
													OFFSET 0 0 0
												}
											}
										}
									}
								}
							}
						}
					}
				}
			}
		}
	}
}
MOTION
Frames: 11
Frame Time: 0.03333333
3.262577 112.606110 -10.792772 0.000000 0.000000 0.000000 -17.839061 -7.687142 -1.772558 2.777798 31.312234 4.712151 28.858229 8.822171 -2.490922 -11.502634 17.653218 -8.075261 -2.156012 -3.540216 4.560209 0.000000 0.000000 0.000000 -16.944755 -8.552371 -2.452831 20.500591 -15.125782 3.518538 20.757732 -2.418521 2.377735 -25.145804 -24.266009 2.281285 -5.497099 3.200072 -7.854728 0.000000 0.000000 0.000000 -17.821768 -3.729701 -2.377852 5.985839 -5.988162 -3.169231 2.806007 -0.537532 -0.647923 0.158669 0.092409 -0.011720 0.000000 0.000000 0.000000 6.844609 0.580221 -0.154138 4.221558 3.458670 1.537013 -12.984299 -20.035506 9.207308 0.000000 0.000000 0.000000 5.607071 -0.628445 -0.655113 5.861384 -4.167419 -9.945502 7.467086 -7.971355 -0.455967 -28.858567 6.792999 -32.520873 8.101722 -52.373221 6.245292 0.000000 0.000000 0.000000 4.884008 -0.993135 -0.300424 -1.257657 8.766579 16.507835 4.252196 3.563182 1.137129 -12.778685 0.841501 60.350780 -7.443884 38.735598 4.764121 0.000000 0.000000 0.000000 
2.897407 112.493027 -10.725630 0.000000 0.000000 0.000000 -17.946049 -7.837387 -1.924466 2.137494 30.709528 5.462092 30.683641 8.808176 -2.762166 -11.033739 17.391840 -7.560593 -1.362485 -3.420160 4.335641 0.000000 0.000000 0.000000 -16.803382 -8.526624 -2.492768 20.261611 -15.365207 3.728698 21.350965 -2.278815 2.248020 -25.163684 -24.625801 2.303961 -4.920785 3.124070 -7.778359 0.000000 0.000000 0.000000 -17.883264 -4.153222 -2.526468 6.242870 -6.178370 -3.207663 2.780666 -0.575726 -0.654451 0.157540 0.056209 -0.004589 0.000000 0.000000 0.000000 6.844525 0.547709 -0.159271 4.271586 3.517597 1.530002 -12.932464 -19.949053 9.208068 0.000000 0.000000 0.000000 5.677124 -0.677633 -0.642815 5.827093 -4.258601 -9.976092 7.522735 -7.991666 -0.458177 -29.164983 6.582139 -32.726674 8.169604 -52.675751 6.347953 0.000000 0.000000 0.000000 4.876755 -1.033799 -0.278994 -1.223436 8.747151 16.516138 4.107122 3.168325 1.115715 -12.636998 0.510707 60.413993 -7.520638 38.684836 4.857169 0.000000 0.000000 0.000000 
2.366786 112.474487 -10.493139 0.000000 0.000000 0.000000 -18.046103 -8.219249 -2.515065 -0.354021 29.554806 7.399372 33.868378 8.329042 -3.156432 -9.130553 16.062984 -7.427336 0.209163 -3.283376 3.742302 0.000000 0.000000 0.000000 -16.730268 -8.781273 -2.929548 19.928621 -15.601139 3.881655 22.206057 -1.779388 2.140090 -25.666292 -24.875100 2.213424 -3.682270 3.094489 -7.938375 0.000000 0.000000 0.000000 -17.910798 -4.996661 -3.041709 6.465457 -6.320748 -3.025866 2.773660 -0.653585 -0.684427 0.159724 0.031857 0.000280 0.000000 0.000000 0.000000 6.857512 0.474583 -0.202347 4.353587 3.602483 1.537132 -12.917623 -19.642822 9.388369 0.000000 0.000000 0.000000 5.743380 -0.774871 -0.667617 5.751234 -4.305964 -10.066341 7.576296 -7.981178 -0.466246 -29.646638 6.379023 -32.990012 8.385739 -52.835615 6.545556 0.000000 0.000000 0.000000 4.879737 -1.120376 -0.276266 -1.181271 8.578128 16.445764 3.707261 2.819398 1.166558 -12.347043 0.257260 60.341504 -7.646732 38.606176 5.000011 0.000000 0.000000 0.000000 
1.845315 112.543564 -10.130205 0.000000 0.000000 0.000000 -18.205548 -9.007959 -3.460059 -3.696551 27.751976 9.859947 37.066077 7.156092 -3.343480 -5.986088 13.504407 -7.821446 -0.805964 -3.378921 3.526515 0.000000 0.000000 0.000000 -16.797744 -9.469928 -3.702466 19.519137 -15.755513 3.969389 23.188823 -0.959081 2.031932 -26.305502 -25.009970 2.158396 -2.348535 3.134564 -8.292429 0.000000 0.000000 0.000000 -17.940148 -6.170521 -3.826249 6.622416 -6.373042 -2.666971 2.798867 -0.748281 -0.729283 0.167425 0.041347 0.007937 0.000000 0.000000 0.000000 6.873278 0.373978 -0.275006 4.465959 3.701544 1.554851 -12.927126 -19.141412 9.678242 0.000000 0.000000 0.000000 5.802452 -0.907751 -0.719033 5.631843 -4.308245 -10.195128 7.634143 -7.922087 -0.424727 -30.175472 6.235430 -33.268813 8.640666 -52.776933 6.739760 0.000000 0.000000 0.000000 4.898338 -1.232862 -0.287167 -1.133122 8.297291 16.292021 3.152932 2.631194 1.212998 -11.970794 0.185304 60.169834 -7.790429 38.504075 5.151147 0.000000 0.000000 0.000000 
1.460716 112.688812 -9.561460 0.000000 0.000000 0.000000 -18.435348 -10.380084 -4.576935 -6.177372 25.342613 11.691373 39.066510 5.656421 -3.088927 -3.316383 10.210596 -7.929138 -4.868029 -3.769357 3.857816 0.000000 0.000000 0.000000 -16.978978 -10.632508 -4.663567 18.960373 -15.737063 3.886402 24.113372 0.209268 1.881217 -26.447531 -25.098049 2.608159 -1.844174 3.260912 -8.748207 0.000000 0.000000 0.000000 -18.053669 -7.806749 -4.770023 6.718792 -6.309115 -2.215130 2.860615 -0.843278 -0.777838 0.171432 0.057052 -0.002341 0.000000 0.000000 0.000000 6.889392 0.262157 -0.356221 4.599976 3.822455 1.574976 -12.984294 -18.485219 9.996014 0.000000 0.000000 0.000000 5.866195 -1.057743 -0.772819 5.483114 -4.287877 -10.320502 7.729292 -7.857351 -0.343254 -30.653346 6.144692 -33.498786 8.813122 -52.574008 6.818828 0.000000 0.000000 0.000000 4.925910 -1.350191 -0.302182 -1.094232 7.948407 16.080067 2.557959 2.507910 1.260897 -11.572226 0.349612 59.926789 -7.912602 38.357024 5.256910 0.000000 0.000000 0.000000 
1.237528 112.858559 -8.741846 0.000000 0.000000 0.000000 -18.704668 -12.384578 -5.682746 -7.342563 22.870192 12.363140 39.914020 4.560245 -2.595778 -2.577443 7.207706 -7.239504 -7.896741 -4.177469 3.993492 0.000000 0.000000 0.000000 -17.248253 -12.404829 -5.639201 18.241871 -15.412264 3.576797 24.895228 1.709547 1.621248 -25.923785 -25.163377 3.656802 -2.172704 3.433114 -9.188699 0.000000 0.000000 0.000000 -18.352662 -9.957201 -5.801316 6.752273 -6.116611 -1.772452 2.945234 -0.924452 -0.814775 0.160417 0.087918 -0.022269 0.000000 0.000000 0.000000 6.907007 0.154737 -0.430507 4.732679 3.963134 1.584925 -13.136120 -17.706883 10.254676 0.000000 0.000000 0.000000 5.948787 -1.202655 -0.808972 5.323447 -4.276303 -10.433117 7.840673 -7.809718 -0.244553 -31.023996 6.114115 -33.629895 8.833029 -52.337291 6.724009 0.000000 0.000000 0.000000 4.957721 -1.457730 -0.309461 -1.076802 7.595924 15.853328 1.967777 2.347311 1.312345 -11.196203 0.718352 59.667911 -7.977051 38.164290 5.271143 0.000000 0.000000 0.000000 
1.179477 113.018593 -7.779860 0.000000 0.000000 0.000000 -19.072023 -14.926241 -6.697723 -7.471234 20.504431 12.034343 39.731467 3.739790 -1.885138 -3.502636 4.885878 -6.720163 -7.768941 -4.353616 3.815999 0.000000 0.000000 0.000000 -17.625877 -14.852687 -6.553065 17.428927 -14.741561 3.102171 25.397667 3.279378 1.248815 -25.149378 -25.193467 4.670888 -2.527813 3.562443 -9.506744 0.000000 0.000000 0.000000 -18.875725 -12.485782 -6.845181 6.745169 -5.829837 -1.424243 3.050341 -0.986461 -0.835568 0.157430 0.114495 -0.033925 0.000000 0.000000 0.000000 6.936522 0.070610 -0.482071 4.859922 4.131618 1.579863 -13.433299 -16.813411 10.410495 0.000000 0.000000 0.000000 6.042705 -1.324190 -0.814509 5.169631 -4.309011 -10.519180 7.927833 -7.747784 -0.210975 -31.280333 6.130898 -33.653025 8.670187 -52.118462 6.434269 0.000000 0.000000 0.000000 4.986697 -1.542222 -0.298138 -1.080736 7.297062 15.655489 1.464446 2.144988 1.380239 -10.869357 1.184359 59.405488 -7.975440 37.944638 5.175120 0.000000 0.000000 0.000000 
1.290716 113.185623 -6.730970 0.000000 0.000000 0.000000 -19.578418 -18.099197 -7.699848 -6.734835 18.139263 10.863610 38.588783 2.882962 -0.967271 -5.078147 3.347368 -7.262622 -5.444918 -4.299525 3.590096 0.000000 0.000000 0.000000 -18.077771 -17.891430 -7.445052 16.522632 -13.870240 2.548891 25.578474 4.699931 0.804408 -24.627946 -25.245738 5.068651 -2.315107 3.590094 -9.668615 0.000000 0.000000 0.000000 -19.562526 -15.327122 -7.927143 6.701266 -5.461048 -1.200317 3.159359 -1.027050 -0.837483 0.158080 0.111900 -0.037721 0.000000 0.000000 0.000000 6.994012 0.024241 -0.497719 4.957172 4.316681 1.563360 -13.876056 -15.891274 10.467472 0.000000 0.000000 0.000000 6.130964 -1.407050 -0.792786 5.031043 -4.395002 -10.581936 7.987783 -7.671523 -0.255462 -31.444524 6.164218 -33.587592 8.387594 -51.941973 6.004453 0.000000 0.000000 0.000000 5.009661 -1.599849 -0.274614 -1.119543 7.112956 15.538846 1.068461 1.841342 1.458321 -10.594992 1.615448 59.151214 -7.917708 37.752566 4.973648 0.000000 0.000000 0.000000 
1.469056 113.425507 -5.630259 0.000000 0.000000 0.000000 -20.247548 -21.783054 -8.759270 -5.724833 16.090643 9.287888 36.897078 2.003092 -0.018792 -6.296614 2.400050 -8.645420 -3.280268 -4.157902 3.523991 0.000000 0.000000 0.000000 -18.639397 -21.275361 -8.390922 15.562065 -12.973598 1.990000 25.478457 5.941871 0.321712 -24.345106 -25.337403 4.870035 -1.654809 3.543928 -9.751891 0.000000 0.000000 0.000000 -20.370233 -18.360836 -9.102362 6.660637 -5.021576 -1.080804 3.266704 -1.037419 -0.826231 0.155634 0.094655 -0.027960 0.000000 0.000000 0.000000 7.073773 0.020241 -0.483193 4.982546 4.497326 1.557682 -14.392336 -15.013036 10.477246 0.000000 0.000000 0.000000 6.191439 -1.442092 -0.764631 4.901250 -4.519537 -10.645074 7.940895 -7.599248 -0.330478 -31.535646 6.201043 -33.467336 8.081820 -51.766366 5.533642 0.000000 0.000000 0.000000 5.019469 -1.626748 -0.243181 -1.189889 7.068674 15.518753 0.798146 1.483200 1.467376 -10.376708 1.904951 58.930531 -7.822343 37.652333 4.685576 0.000000 0.000000 0.000000 
1.675747 113.760193 -4.623915 0.000000 0.000000 0.000000 -21.136447 -25.717988 -9.959665 -4.853333 14.567024 7.586195 35.224167 1.248650 0.911515 -6.720345 1.604882 -10.079261 -2.967368 -4.072255 3.660438 0.000000 0.000000 0.000000 -19.331829 -24.760988 -9.447278 14.535974 -12.204871 1.450348 25.246999 7.090516 -0.162086 -23.735271 -25.451279 4.619389 -1.186382 3.503324 -9.864403 0.000000 0.000000 0.000000 -21.243656 -21.465835 -10.377211 6.651862 -4.513786 -1.021147 3.378641 -1.011523 -0.817566 0.151257 0.066259 -0.020862 0.000000 0.000000 0.000000 7.149782 0.056910 -0.453248 4.933199 4.652978 1.580172 -14.883611 -14.218557 10.502345 0.000000 0.000000 0.000000 6.221177 -1.430327 -0.748897 4.777611 -4.670679 -10.692855 7.817672 -7.524523 -0.403240 -31.599559 6.237802 -33.309169 7.825352 -51.501371 5.111520 0.000000 0.000000 0.000000 5.006696 -1.613926 -0.204697 -1.291709 7.168372 15.593505 0.652683 1.093563 1.394999 -10.220953 2.054370 58.745357 -7.704966 37.655079 4.326369 0.000000 0.000000 0.000000 
1.927273 114.168694 -3.637918 0.000000 0.000000 0.000000 -22.119038 -29.552705 -11.291326 -4.258830 13.584129 5.806710 34.121306 0.949366 1.781454 -6.477293 1.051716 -10.675543 -3.295399 -3.983571 3.468711 0.000000 0.000000 0.000000 -20.163642 -28.215901 -10.626064 13.428674 -11.627767 0.917183 24.810520 8.361516 -0.633710 -22.474230 -25.480251 4.982953 -1.353504 3.521495 -10.073588 0.000000 0.000000 0.000000 -22.162992 -24.552531 -11.755318 6.683826 -3.948223 -0.973395 3.491504 -0.951238 -0.818921 0.144687 0.047483 -0.016529 0.000000 0.000000 0.000000 7.190336 0.123033 -0.433434 4.815850 4.761079 1.641010 -15.265507 -13.547309 10.580073 0.000000 0.000000 0.000000 6.229601 -1.385276 -0.753901 4.658314 -4.830988 -10.744138 7.649427 -7.440697 -0.412215 -31.650919 6.279188 -33.139907 7.669037 -51.138849 4.806999 0.000000 0.000000 0.000000 4.962903 -1.562619 -0.162302 -1.428132 7.394821 15.765847 0.635253 0.689700 1.265429 -10.140352 2.110080 58.595694 -7.588564 37.740040 3.938022 0.000000 0.000000 0.000000 
